<svg xmlns="http://www.w3.org/2000/svg" viewBox="0 0 64 64" role="img" aria-label="MotionPort">
  <rect width="64" height="64" rx="12" fill="#050816"/>
  <path d="M11 38c4-7 12-12 22-12 8 0 15 3 21 10 3 0 5 2 6 4 1 2 0 5-3 5H10c-3 0-4-4 1-7Z" fill="#0E162B" stroke="#2DE2FF" stroke-width="2"/>
  <path d="M23 26c4-5 13-6 20 0 2 2 4 4 6 8H17c1-3 3-6 6-8Z" fill="#2DE2FF" fill-opacity=".18"/>
  <circle cx="21" cy="45" r="5" fill="#050816" stroke="#B6FF4D" stroke-width="2"/>
  <circle cx="47" cy="45" r="5" fill="#050816" stroke="#B6FF4D" stroke-width="2"/>
</svg>
